<svg width="145" height="36" viewBox="0 0 145 36" fill="none" xmlns="http://www.w3.org/2000/svg">
<path d="M22.3008 22.7305C22.3008 22.2227 22.1445 21.8841 21.832 21.7148C21.5326 21.5456 21.0898 21.4609 20.5039 21.4609H11.4414V20.0547H20.5039C22.6393 20.0547 23.707 20.9466 23.707 22.7305C23.707 23.7331 23.4141 24.4557 22.8281 24.8984C22.2422 25.3411 21.4674 25.5625 20.5039 25.5625H11.4414V24.1562H20.5039C21.7018 24.1562 22.3008 23.681 22.3008 22.7305ZM10.6602 34H9.25391V10.0938H20.5039C21.3893 10.0938 22.1445 10.3672 22.7695 10.9141C23.3945 11.4479 23.707 12.1185 23.707 12.9258C23.707 13.9935 23.4141 14.7682 22.8281 15.25C22.2422 15.7188 21.4674 15.9531 20.5039 15.9531H11.4414V14.5469H20.5039C21.7018 14.5469 22.3008 14.0065 22.3008 12.9258C22.3008 12.4831 22.1315 12.138 21.793 11.8906C21.4544 11.6302 21.0247 11.5 20.5039 11.5H10.6602V34ZM11.4414 17.3594H20.5039C21.793 17.3594 22.8802 16.9753 23.7656 16.207C24.6641 15.4258 25.1133 14.332 25.1133 12.9258C25.1133 11.793 24.6445 10.8034 23.707 9.95703C22.7826 9.11068 21.7148 8.6875 20.5039 8.6875H7.84766V34H6.44141V7.28125H20.5039C22.1055 7.28125 23.5052 7.84766 24.7031 8.98047C25.9141 10.1003 26.5195 11.4154 26.5195 12.9258C26.5195 14.1107 26.2396 15.1458 25.6797 16.0312C25.1328 16.9167 24.3906 17.6003 23.4531 18.082C25.4974 18.8112 26.5195 20.2956 26.5195 22.5352C26.5195 24.306 25.9336 25.7253 24.7617 26.793C23.5898 27.8477 22.1706 28.375 20.5039 28.375H11.4414V26.9688H20.5039C21.793 26.9688 22.8802 26.5846 23.7656 25.8164C24.6641 25.0352 25.1133 23.9414 25.1133 22.5352C25.1133 21.5846 24.7747 20.7448 24.0977 20.0156C23.4206 19.2865 22.4245 18.8633 21.1094 18.7461C20.9792 18.7591 20.7773 18.7656 20.5039 18.7656H11.4414V17.3594ZM29.332 12.9258C29.332 14.7487 28.6875 16.3958 27.3984 17.8672C28.6875 19.2995 29.332 20.8555 29.332 22.5352C29.332 24.1628 28.9219 25.6471 28.1016 26.9883C27.2943 28.3164 26.2135 29.3516 24.8594 30.0938C23.5182 30.8229 22.0664 31.1875 20.5039 31.1875H11.4414V29.7812H20.5039C22.5352 29.7812 24.2799 29.1042 25.7383 27.75C27.1966 26.3828 27.9258 24.6445 27.9258 22.5352C27.9258 21.7799 27.7305 20.9466 27.3398 20.0352C26.9622 19.1107 26.4349 18.4076 25.7578 17.9258C27.2031 16.5716 27.9258 14.9049 27.9258 12.9258C27.9258 11.0247 27.1836 9.3776 25.6992 7.98438C24.2148 6.57812 22.4831 5.875 20.5039 5.875H5.03516V34H3.62891V4.46875H20.5039C22.0534 4.46875 23.5052 4.85286 24.8594 5.62109C26.2266 6.3763 27.3138 7.41146 28.1211 8.72656C28.9284 10.0286 29.332 11.4284 29.332 12.9258ZM29 17.9453C30.1589 16.3958 30.7383 14.7227 30.7383 12.9258C30.7383 11.168 30.2695 9.53385 29.332 8.02344C28.4076 6.5 27.1576 5.29557 25.582 4.41016C24.0065 3.51172 22.3138 3.0625 20.5039 3.0625H2.22266V34H0.816406V1.65625H20.5039C22.5612 1.65625 24.4818 2.16406 26.2656 3.17969C28.0625 4.19531 29.4883 5.57552 30.543 7.32031C31.6107 9.05208 32.1445 10.9206 32.1445 12.9258C32.1445 14.8398 31.6042 16.5195 30.5234 17.9648C31.6042 19.4622 32.1445 20.9857 32.1445 22.5352C32.1445 24.2799 31.832 25.8815 31.207 27.3398C30.582 28.7852 29.7357 29.9896 28.668 30.9531C27.6133 31.9167 26.3828 32.6654 24.9766 33.1992C23.5703 33.7331 22.0794 34 20.5039 34H11.4414V32.5938H20.5039C21.8711 32.5938 23.1797 32.3398 24.4297 31.832C25.6797 31.3112 26.7669 30.6081 27.6914 29.7227C28.6159 28.8372 29.3516 27.7695 29.8984 26.5195C30.4583 25.2695 30.7383 23.9414 30.7383 22.5352C30.7383 21.9102 30.5885 21.1615 30.2891 20.2891C30.0026 19.4036 29.5729 18.6224 29 17.9453ZM35.3086 1.65625H36.7148V34H35.3086V1.65625ZM43.7461 1.65625H45.1523V26.9688H56.4023V28.375H45.1523V29.7812H56.4023V31.1875H45.1523V32.5938H56.4023V34H43.7461V1.65625ZM40.9336 1.65625H42.3398V34H40.9336V1.65625ZM38.1211 1.65625H39.5273V34H38.1211V1.65625ZM73.4922 24.5078L74.0586 23.1016H78.8633L79.4297 24.5078H73.4922ZM72.3984 27.3203L72.9453 25.9141H79.957L80.5625 27.3203H72.3984ZM71.3047 30.1328L71.8516 28.7266H81.0703L81.6562 30.1328H71.3047ZM59.8789 34H58.3555L71.1484 1.65625H72.6719L85.4453 34H83.9414L71.9102 3.55078L59.8789 34ZM72.0859 6.89062L72.8867 8.6875L62.8867 34H61.3828L72.0859 6.89062ZM73.6484 10.6016L74.3906 12.5352L65.9336 34H64.4102L73.6484 10.6016ZM75.1328 14.4688L75.875 16.4414L68.9414 34H67.4375L75.1328 14.4688ZM94.5273 34H93.0039L80.2305 1.65625H81.7344L94.5273 34ZM78.707 1.65625L91.5 34H89.9961L77.2031 1.65625H78.707ZM75.6797 1.65625L88.4727 34H86.9492L74.1758 1.65625H75.6797ZM110.055 14.3125H107.691C106.689 14.3125 105.966 14.0586 105.523 13.5508C105.081 13.0299 104.859 12.3464 104.859 11.5C104.859 9.625 106.259 8.6875 109.059 8.6875C111.689 8.6875 113.668 9.07812 114.996 9.85938L113.863 10.7188C112.952 10.3021 111.35 10.0938 109.059 10.0938C107.939 10.0938 107.184 10.2174 106.793 10.4648C106.415 10.7122 106.227 11.0573 106.227 11.5C106.227 11.9427 106.331 12.2878 106.539 12.5352C106.747 12.7826 107.132 12.9062 107.691 12.9062H110.113C111.871 12.9062 113.453 13.2057 114.859 13.8047C116.279 14.4036 117.444 15.224 118.355 16.2656C119.267 17.2943 119.964 18.4857 120.445 19.8398C120.927 21.181 121.168 22.6198 121.168 24.1562C121.168 25.4062 120.992 26.5911 120.641 27.7109C120.289 28.8307 119.755 29.8594 119.039 30.7969C118.336 31.7344 117.483 32.5482 116.48 33.2383C115.491 33.9154 114.306 34.4427 112.926 34.8203C111.559 35.2109 110.074 35.4062 108.473 35.4062C105.96 35.4062 103.603 35.0221 101.402 34.2539C99.2148 33.4987 97.3919 32.4375 95.9336 31.0703L97.0664 30.2305C98.3945 31.4284 100.055 32.3594 102.047 33.0234C104.052 33.6745 106.194 34 108.473 34C110.257 34 111.865 33.7461 113.297 33.2383C114.742 32.7174 115.927 32.0078 116.852 31.1094C117.789 30.2109 118.505 29.1693 119 27.9844C119.508 26.7995 119.762 25.5234 119.762 24.1562C119.762 22.3464 119.397 20.7122 118.668 19.2539C117.939 17.7826 116.826 16.5911 115.328 15.6797C113.844 14.7682 112.086 14.3125 110.055 14.3125ZM107.691 15.7188H109.918C112.561 15.7188 114.625 16.526 116.109 18.1406C117.607 19.7552 118.355 21.7604 118.355 24.1562C118.355 26.5911 117.49 28.6094 115.758 30.2109C114.026 31.7995 111.598 32.5938 108.473 32.5938C106.389 32.5938 104.443 32.3073 102.633 31.7344C100.823 31.1615 99.319 30.3542 98.1211 29.3125L99.2148 28.4336C100.283 29.306 101.624 29.9831 103.238 30.4648C104.866 30.9466 106.611 31.1875 108.473 31.1875C111.22 31.1875 113.316 30.5299 114.762 29.2148C116.22 27.8997 116.949 26.2135 116.949 24.1562C116.949 22.125 116.337 20.4453 115.113 19.1172C113.902 17.7891 112.164 17.125 109.898 17.125H107.691C105.79 17.125 104.365 16.6042 103.414 15.5625C102.464 14.5208 101.988 13.1667 101.988 11.5C101.988 9.83333 102.574 8.47917 103.746 7.4375C104.931 6.39583 106.702 5.875 109.059 5.875C110.712 5.875 112.249 6.07031 113.668 6.46094C115.087 6.83854 116.259 7.38542 117.184 8.10156L116.07 8.96094C114.443 7.84115 112.105 7.28125 109.059 7.28125C107.092 7.28125 105.654 7.67188 104.742 8.45312C103.844 9.22135 103.395 10.237 103.395 11.5C103.395 12.776 103.727 13.7982 104.391 14.5664C105.068 15.3346 106.168 15.7188 107.691 15.7188ZM107.691 18.5312H109.84C111.741 18.5312 113.167 19.0586 114.117 20.1133C115.068 21.168 115.543 22.5156 115.543 24.1562C115.543 25.8229 114.951 27.1771 113.766 28.2188C112.594 29.2604 110.829 29.7812 108.473 29.7812C106.819 29.7812 105.276 29.5924 103.844 29.2148C102.424 28.8242 101.253 28.2708 100.328 27.5547L101.441 26.6953C103.069 27.8151 105.413 28.375 108.473 28.375C110.439 28.375 111.871 27.9909 112.77 27.2227C113.681 26.4414 114.137 25.4193 114.137 24.1562C114.137 22.8932 113.798 21.8776 113.121 21.1094C112.444 20.3281 111.344 19.9375 109.82 19.9375H107.691C105.022 19.9375 102.932 19.1432 101.422 17.5547C99.9245 15.9531 99.1758 13.9349 99.1758 11.5C99.1758 9.0651 100.042 7.05339 101.773 5.46484C103.505 3.86328 105.934 3.0625 109.059 3.0625C111.142 3.0625 113.082 3.34896 114.879 3.92188C116.689 4.49479 118.193 5.30208 119.391 6.34375L118.297 7.22266C117.229 6.35026 115.888 5.67318 114.273 5.19141C112.659 4.70964 110.921 4.46875 109.059 4.46875C106.311 4.46875 104.208 5.1263 102.75 6.44141C101.305 7.75651 100.582 9.44271 100.582 11.5C100.582 13.5443 101.194 15.2305 102.418 16.5586C103.642 17.8737 105.4 18.5312 107.691 18.5312ZM107.691 21.3438H109.84C110.842 21.3438 111.565 21.6042 112.008 22.125C112.451 22.6458 112.672 23.3229 112.672 24.1562C112.672 26.0312 111.272 26.9688 108.473 26.9688C105.829 26.9688 103.844 26.5781 102.516 25.7969L103.648 24.9375C104.56 25.3542 106.168 25.5625 108.473 25.5625C109.592 25.5625 110.341 25.4388 110.719 25.1914C111.109 24.944 111.305 24.599 111.305 24.1562C111.305 23.7266 111.194 23.388 110.973 23.1406C110.764 22.8802 110.374 22.75 109.801 22.75H107.691C105.895 22.75 104.267 22.457 102.809 21.8711C101.363 21.2852 100.172 20.4779 99.2344 19.4492C98.3099 18.4206 97.6003 17.2292 97.1055 15.875C96.6107 14.5208 96.3633 13.0625 96.3633 11.5C96.3633 10.25 96.5391 9.0651 96.8906 7.94531C97.2422 6.82552 97.7695 5.79688 98.4727 4.85938C99.1888 3.92188 100.042 3.11458 101.031 2.4375C102.034 1.7474 103.219 1.21354 104.586 0.835938C105.966 0.445312 107.457 0.25 109.059 0.25C111.572 0.25 113.922 0.634115 116.109 1.40234C118.297 2.15755 120.12 3.21875 121.578 4.58594L120.445 5.42578C119.117 4.22786 117.457 3.30339 115.465 2.65234C113.473 1.98828 111.337 1.65625 109.059 1.65625C107.275 1.65625 105.66 1.91667 104.215 2.4375C102.783 2.94531 101.598 3.64844 100.66 4.54688C99.7357 5.44531 99.0195 6.48698 98.5117 7.67188C98.0169 8.85677 97.7695 10.1328 97.7695 11.5C97.7695 13.3359 98.1406 14.9896 98.8828 16.4609C99.625 17.9323 100.758 19.1172 102.281 20.0156C103.805 20.901 105.608 21.3438 107.691 21.3438ZM123.668 3.0625V1.65625H144.762V3.0625H123.668ZM123.668 5.875V4.46875H144.762V5.875H123.668ZM123.668 8.6875V7.28125H144.762V8.6875H139.137V34H137.73V8.6875H136.324V34H134.918V8.6875H133.512V34H132.105V8.6875H130.699V34H129.293V8.6875H123.668Z" fill="url(#paint0_linear_115_2)"/>
<defs>
<linearGradient id="paint0_linear_115_2" x1="147" y1="37" x2="-1" y2="37" gradientUnits="userSpaceOnUse">
<stop stop-color="#E8AB46"/>
<stop offset="0.333333" stop-color="#DE7945"/>
<stop offset="0.666667" stop-color="#BE515B"/>
<stop offset="1" stop-color="#AA65CA"/>
</linearGradient>
</defs>
</svg>
