<svg width="32" height="33" viewBox="0 0 32 33" fill="none" xmlns="http://www.w3.org/2000/svg">
<path d="M21.4844 21.0742C21.4844 20.5664 21.3281 20.2279 21.0156 20.0586C20.7161 19.8893 20.2734 19.8047 19.6875 19.8047H10.625V18.3984H19.6875C21.8229 18.3984 22.8906 19.2904 22.8906 21.0742C22.8906 22.0768 22.5977 22.7995 22.0117 23.2422C21.4258 23.6849 20.651 23.9062 19.6875 23.9062H10.625V22.5H19.6875C20.8854 22.5 21.4844 22.0247 21.4844 21.0742ZM9.84375 32.3438H8.4375V8.4375H19.6875C20.5729 8.4375 21.3281 8.71094 21.9531 9.25781C22.5781 9.79167 22.8906 10.4622 22.8906 11.2695C22.8906 12.3372 22.5977 13.112 22.0117 13.5938C21.4258 14.0625 20.651 14.2969 19.6875 14.2969H10.625V12.8906H19.6875C20.8854 12.8906 21.4844 12.3503 21.4844 11.2695C21.4844 10.8268 21.3151 10.4818 20.9766 10.2344C20.638 9.97396 20.2083 9.84375 19.6875 9.84375H9.84375V32.3438ZM10.625 15.7031H19.6875C20.9766 15.7031 22.0638 15.319 22.9492 14.5508C23.8477 13.7695 24.2969 12.6758 24.2969 11.2695C24.2969 10.1367 23.8281 9.14714 22.8906 8.30078C21.9661 7.45443 20.8984 7.03125 19.6875 7.03125H7.03125V32.3438H5.625V5.625H19.6875C21.2891 5.625 22.6888 6.19141 23.8867 7.32422C25.0977 8.44401 25.7031 9.75911 25.7031 11.2695C25.7031 12.4544 25.4232 13.4896 24.8633 14.375C24.3164 15.2604 23.5742 15.944 22.6367 16.4258C24.681 17.1549 25.7031 18.6393 25.7031 20.8789C25.7031 22.6497 25.1172 24.069 23.9453 25.1367C22.7734 26.1914 21.3542 26.7188 19.6875 26.7188H10.625V25.3125H19.6875C20.9766 25.3125 22.0638 24.9284 22.9492 24.1602C23.8477 23.3789 24.2969 22.2852 24.2969 20.8789C24.2969 19.9284 23.9583 19.0885 23.2812 18.3594C22.6042 17.6302 21.6081 17.207 20.293 17.0898C20.1628 17.1029 19.9609 17.1094 19.6875 17.1094H10.625V15.7031ZM28.5156 11.2695C28.5156 13.0924 27.8711 14.7396 26.582 16.2109C27.8711 17.6432 28.5156 19.1992 28.5156 20.8789C28.5156 22.5065 28.1055 23.9909 27.2852 25.332C26.4779 26.6602 25.3971 27.6953 24.043 28.4375C22.7018 29.1667 21.25 29.5312 19.6875 29.5312H10.625V28.125H19.6875C21.7188 28.125 23.4635 27.4479 24.9219 26.0938C26.3802 24.7266 27.1094 22.9883 27.1094 20.8789C27.1094 20.1237 26.9141 19.2904 26.5234 18.3789C26.1458 17.4544 25.6185 16.7513 24.9414 16.2695C26.3867 14.9154 27.1094 13.2487 27.1094 11.2695C27.1094 9.36849 26.3672 7.72135 24.8828 6.32812C23.3984 4.92188 21.6667 4.21875 19.6875 4.21875H4.21875V32.3438H2.8125V2.8125H19.6875C21.237 2.8125 22.6888 3.19661 24.043 3.96484C25.4102 4.72005 26.4974 5.75521 27.3047 7.07031C28.112 8.3724 28.5156 9.77214 28.5156 11.2695ZM28.1836 16.2891C29.3424 14.7396 29.9219 13.0664 29.9219 11.2695C29.9219 9.51172 29.4531 7.8776 28.5156 6.36719C27.5911 4.84375 26.3411 3.63932 24.7656 2.75391C23.1901 1.85547 21.4974 1.40625 19.6875 1.40625H1.40625V32.3438H0V0H19.6875C21.7448 0 23.6654 0.507812 25.4492 1.52344C27.2461 2.53906 28.6719 3.91927 29.7266 5.66406C30.7943 7.39583 31.3281 9.26432 31.3281 11.2695C31.3281 13.1836 30.7878 14.8633 29.707 16.3086C30.7878 17.806 31.3281 19.3294 31.3281 20.8789C31.3281 22.6237 31.0156 24.2253 30.3906 25.6836C29.7656 27.1289 28.9193 28.3333 27.8516 29.2969C26.7969 30.2604 25.5664 31.0091 24.1602 31.543C22.7539 32.0768 21.263 32.3438 19.6875 32.3438H10.625V30.9375H19.6875C21.0547 30.9375 22.3633 30.6836 23.6133 30.1758C24.8633 29.6549 25.9505 28.9518 26.875 28.0664C27.7995 27.181 28.5352 26.1133 29.082 24.8633C29.6419 23.6133 29.9219 22.2852 29.9219 20.8789C29.9219 20.2539 29.7721 19.5052 29.4727 18.6328C29.1862 17.7474 28.7565 16.9661 28.1836 16.2891Z" fill="url(#paint0_linear_115_24)"/>
<defs>
<linearGradient id="paint0_linear_115_24" x1="32.1836" y1="32.3437" x2="-1.81641" y2="32.3437" gradientUnits="userSpaceOnUse">
<stop stop-color="#E8AB46"/>
<stop offset="0.333333" stop-color="#DE7945"/>
<stop offset="0.666667" stop-color="#BE515B"/>
<stop offset="1" stop-color="#AA65CA"/>
</linearGradient>
</defs>
</svg>
