<svg width="80" height="110" viewBox="0 0 80 110" fill="none" xmlns="http://www.w3.org/2000/svg">
<mask id="mask0_121_51" style="mask-type:alpha" maskUnits="userSpaceOnUse" x="0" y="0" width="80" height="110">
<rect width="80" height="110" fill="#2E2E2E"/>
</mask>
<g mask="url(#mask0_121_51)">
<rect width="80" height="110" rx="1" fill="#FFF5D1"/>
<rect x="-52" y="55" width="230" height="10" fill="#AA65CA"/>
<rect x="-53" y="65" width="230" height="10" fill="#BE515B"/>
<rect x="-53" y="75" width="230" height="10" fill="#DE7945"/>
<rect x="-53" y="85" width="230" height="10" fill="#E8AB46"/>
<path d="M7.586 31.356C8.51933 31.356 9.27067 31.636 9.84 32.196C10.4187 32.756 10.708 33.5867 10.708 34.688V39H8.524V35.024C8.524 34.4267 8.39333 33.9833 8.132 33.694C7.87067 33.3953 7.49267 33.246 6.998 33.246C6.44733 33.246 6.00867 33.4187 5.682 33.764C5.35533 34.1 5.192 34.604 5.192 35.276L5.192 39H3.008L3.008 31.468H5.094V32.35C5.38333 32.0327 5.74267 31.79 6.172 31.622C6.60133 31.4447 7.07267 31.356 7.586 31.356ZM15.3737 39.112C14.5804 39.112 13.8664 38.9487 13.2317 38.622C12.6064 38.286 12.1164 37.824 11.7617 37.236C11.4071 36.648 11.2297 35.9807 11.2297 35.234C11.2297 34.4873 11.4071 33.82 11.7617 33.232C12.1164 32.644 12.6064 32.1867 13.2317 31.86C13.8664 31.524 14.5804 31.356 15.3737 31.356C16.1671 31.356 16.8764 31.524 17.5017 31.86C18.1271 32.1867 18.6171 32.644 18.9717 33.232C19.3264 33.82 19.5037 34.4873 19.5037 35.234C19.5037 35.9807 19.3264 36.648 18.9717 37.236C18.6171 37.824 18.1271 38.286 17.5017 38.622C16.8764 38.9487 16.1671 39.112 15.3737 39.112ZM15.3737 37.32C15.9337 37.32 16.3911 37.1333 16.7457 36.76C17.1097 36.3773 17.2917 35.8687 17.2917 35.234C17.2917 34.5993 17.1097 34.0953 16.7457 33.722C16.3911 33.3393 15.9337 33.148 15.3737 33.148C14.8137 33.148 14.3517 33.3393 13.9877 33.722C13.6237 34.0953 13.4417 34.5993 13.4417 35.234C13.4417 35.8687 13.6237 36.3773 13.9877 36.76C14.3517 37.1333 14.8137 37.32 15.3737 37.32ZM7.544 51.636C7.32933 51.7947 7.06333 51.916 6.746 52C6.438 52.0747 6.116 52.112 5.78 52.112C4.87467 52.112 4.17933 51.8833 3.694 51.426C3.20867 50.9687 2.966 50.2967 2.966 49.41L2.966 42.802H5.15V44.636H7.012V46.316H5.15L5.15 49.382C5.15 49.6993 5.22933 49.9467 5.388 50.124C5.54667 50.292 5.77533 50.376 6.074 50.376C6.41 50.376 6.70867 50.2827 6.97 50.096L7.544 51.636ZM12.3755 44.356C13.3089 44.356 14.0602 44.636 14.6295 45.196C15.2082 45.756 15.4975 46.5867 15.4975 47.688V52H13.3135V48.024C13.3135 47.4267 13.1829 46.9833 12.9215 46.694C12.6602 46.3953 12.2822 46.246 11.7875 46.246C11.2369 46.246 10.7982 46.4187 10.4715 46.764C10.1449 47.1 9.98153 47.604 9.98153 48.276L9.98153 52H7.79753L7.79753 41.612H9.98153V45.252C10.2709 44.9627 10.6209 44.7433 11.0315 44.594C11.4422 44.4353 11.8902 44.356 12.3755 44.356ZM24.0852 44.468V52H22.0132V51.104C21.7239 51.4307 21.3786 51.6827 20.9772 51.86C20.5759 52.028 20.1419 52.112 19.6752 52.112C18.6859 52.112 17.9019 51.8273 17.3232 51.258C16.7446 50.6887 16.4552 49.844 16.4552 48.724V44.468H18.6392V48.402C18.6392 49.6153 19.1479 50.222 20.1652 50.222C20.6879 50.222 21.1079 50.054 21.4252 49.718C21.7426 49.3727 21.9012 48.864 21.9012 48.192V44.468H24.0852ZM34.7745 44.356C35.7172 44.356 36.4639 44.636 37.0145 45.196C37.5745 45.7467 37.8545 46.5773 37.8545 47.688V52H35.6705V48.024C35.6705 47.4267 35.5445 46.9833 35.2925 46.694C35.0499 46.3953 34.6999 46.246 34.2425 46.246C33.7292 46.246 33.3232 46.414 33.0245 46.75C32.7259 47.0767 32.5765 47.5667 32.5765 48.22V52H30.3925V48.024C30.3925 46.8387 29.9165 46.246 28.9645 46.246C28.4605 46.246 28.0592 46.414 27.7605 46.75C27.4619 47.0767 27.3125 47.5667 27.3125 48.22V52H25.1285V44.468H27.2145V45.336C27.4945 45.0187 27.8352 44.776 28.2365 44.608C28.6472 44.44 29.0952 44.356 29.5805 44.356C30.1125 44.356 30.5932 44.4633 31.0225 44.678C31.4519 44.8833 31.7972 45.1867 32.0585 45.588C32.3665 45.196 32.7539 44.8927 33.2205 44.678C33.6965 44.4633 34.2145 44.356 34.7745 44.356ZM43.2841 44.356C43.9841 44.356 44.6188 44.5193 45.1881 44.846C45.7668 45.1633 46.2195 45.616 46.5461 46.204C46.8728 46.7827 47.0361 47.4593 47.0361 48.234C47.0361 49.0087 46.8728 49.69 46.5461 50.278C46.2195 50.8567 45.7668 51.3093 45.1881 51.636C44.6188 51.9533 43.9841 52.112 43.2841 52.112C42.2481 52.112 41.4595 51.7853 40.9181 51.132V52H38.8321V41.612H41.0161V45.266C41.5668 44.6593 42.3228 44.356 43.2841 44.356ZM42.9061 50.32C43.4661 50.32 43.9235 50.1333 44.2781 49.76C44.6421 49.3773 44.8241 48.8687 44.8241 48.234C44.8241 47.5993 44.6421 47.0953 44.2781 46.722C43.9235 46.3393 43.4661 46.148 42.9061 46.148C42.3461 46.148 41.8841 46.3393 41.5201 46.722C41.1655 47.0953 40.9881 47.5993 40.9881 48.234C40.9881 48.8687 41.1655 49.3773 41.5201 49.76C41.8841 50.1333 42.3461 50.32 42.9061 50.32ZM52.0962 44.356C53.0295 44.356 53.7808 44.636 54.3502 45.196C54.9288 45.756 55.2182 46.5867 55.2182 47.688V52H53.0342V48.024C53.0342 47.4267 52.9035 46.9833 52.6422 46.694C52.3808 46.3953 52.0028 46.246 51.5082 46.246C50.9575 46.246 50.5188 46.4187 50.1922 46.764C49.8655 47.1 49.7022 47.604 49.7022 48.276V52H47.5182V44.468H49.6042V45.35C49.8935 45.0327 50.2528 44.79 50.6822 44.622C51.1115 44.4447 51.5828 44.356 52.0962 44.356ZM63.9439 44.468V52H61.8579V51.132C61.3165 51.7853 60.5325 52.112 59.5059 52.112C58.7965 52.112 58.1525 51.9533 57.5739 51.636C57.0045 51.3187 56.5565 50.866 56.2299 50.278C55.9032 49.69 55.7399 49.0087 55.7399 48.234C55.7399 47.4593 55.9032 46.778 56.2299 46.19C56.5565 45.602 57.0045 45.1493 57.5739 44.832C58.1525 44.5147 58.7965 44.356 59.5059 44.356C60.4672 44.356 61.2185 44.6593 61.7599 45.266V44.468H63.9439ZM59.8839 50.32C60.4345 50.32 60.8919 50.1333 61.2559 49.76C61.6199 49.3773 61.8019 48.8687 61.8019 48.234C61.8019 47.5993 61.6199 47.0953 61.2559 46.722C60.8919 46.3393 60.4345 46.148 59.8839 46.148C59.3239 46.148 58.8619 46.3393 58.4979 46.722C58.1339 47.0953 57.9519 47.5993 57.9519 48.234C57.9519 48.8687 58.1339 49.3773 58.4979 49.76C58.8619 50.1333 59.3239 50.32 59.8839 50.32ZM64.9859 44.468H67.1699V52H64.9859V44.468ZM66.0779 43.418C65.6766 43.418 65.3499 43.3013 65.0979 43.068C64.8459 42.8347 64.7199 42.5453 64.7199 42.2C64.7199 41.8547 64.8459 41.5653 65.0979 41.332C65.3499 41.0987 65.6766 40.982 66.0779 40.982C66.4792 40.982 66.8059 41.094 67.0579 41.318C67.3099 41.542 67.4359 41.822 67.4359 42.158C67.4359 42.522 67.3099 42.8253 67.0579 43.068C66.8059 43.3013 66.4792 43.418 66.0779 43.418ZM70.9188 52.112C70.0695 52.112 69.4068 51.888 68.9308 51.44C68.4548 50.9827 68.2168 50.3387 68.2168 49.508V41.612H70.4008V49.382C70.4008 49.6993 70.4802 49.9467 70.6388 50.124C70.8068 50.292 71.0402 50.376 71.3388 50.376C71.4508 50.376 71.5628 50.362 71.6748 50.334C71.7962 50.306 71.8895 50.2733 71.9548 50.236L72.0528 51.93C71.6888 52.0513 71.3108 52.112 70.9188 52.112Z" fill="#5C3C6B"/>
</g>
</svg>
